<?xml version="1.0" standalone="no"?>
<!DOCTYPE svg PUBLIC "-//W3C//DTD SVG 20010904//EN"
 "http://www.w3.org/TR/2001/REC-SVG-20010904/DTD/svg10.dtd">
<svg version="1.0" xmlns="http://www.w3.org/2000/svg"
 width="300.000000pt" height="292.000000pt" viewBox="0 0 300.000000 292.000000"
 preserveAspectRatio="xMidYMid meet">
<metadata>
Created by potrace 1.10, written by Peter Selinger 2001-2011
</metadata>
<g transform="translate(0.000000,292.000000) scale(0.100000,-0.100000)"
fill="#000000" stroke="none">
<path d="M87 1760 l-27 -21 0 -270 c0 -256 1 -270 20 -289 19 -19 33 -20 280
-20 254 0 260 0 280 22 14 16 20 35 20 70 0 40 3 48 18 48 11 0 27 -9 37 -20
23 -25 57 -26 78 -2 21 23 22 46 1 66 -21 22 -57 20 -79 -4 -10 -11 -26 -20
-37 -20 -14 0 -18 8 -18 40 l0 40 -61 0 c-52 0 -60 2 -57 17 3 15 16 18 83 19
66 1 83 -2 98 -17 10 -11 23 -19 30 -19 25 0 57 31 57 55 0 24 -33 55 -57 55
-7 0 -21 -9 -30 -20 -15 -17 -30 -20 -100 -20 -74 0 -83 2 -83 18 0 16 7 18
60 14 l60 -4 0 41 c0 37 3 41 24 41 13 0 29 -7 36 -16 22 -25 73 -14 84 18 19
53 -57 95 -86 48 -7 -11 -23 -20 -35 -20 -21 0 -23 4 -23 59 0 43 -5 65 -19
82 -19 24 -20 24 -273 27 -246 3 -255 2 -281 -18z m521 -32 c5 -7 13 -35 16
-62 4 -27 9 -53 12 -58 3 -5 0 -22 -8 -38 -10 -24 -21 -32 -51 -37 -42 -6 -62
-32 -53 -68 7 -28 -11 -44 -21 -18 -3 10 -15 28 -26 40 l-20 22 23 19 c34 27
20 68 -43 129 -76 74 -86 74 -167 -6 -71 -69 -80 -109 -40 -178 19 -32 18 -32
-6 -48 -17 -11 -24 -25 -24 -46 0 -24 13 -42 63 -90 34 -33 72 -62 84 -65 31
-8 136 84 157 137 16 39 17 39 38 24 13 -8 33 -15 45 -15 24 0 56 -48 48 -72
-2 -7 -6 -29 -9 -48 -8 -58 -16 -60 -272 -60 -203 0 -233 2 -245 17 -18 21
-26 481 -9 513 10 19 20 20 254 20 183 0 246 -3 254 -12z m-224 -65 c0 -16 8
-25 28 -32 23 -8 68 -62 68 -82 0 -13 -66 5 -83 23 -37 38 -118 4 -91 -39 5
-9 39 -24 74 -34 75 -20 100 -45 100 -98 0 -45 -22 -79 -64 -96 -18 -8 -31
-21 -31 -32 0 -12 -9 -19 -27 -21 -24 -3 -28 0 -28 20 0 18 -8 26 -32 33 -19
6 -42 24 -55 44 -32 48 -30 61 11 61 28 0 35 -4 40 -25 12 -48 99 -56 116 -11
13 34 -7 54 -68 72 -74 22 -90 33 -102 70 -17 50 13 102 68 118 15 5 22 15 22
32 0 22 4 25 28 22 21 -2 27 -8 26 -25z m394 -66 c2 -11 -3 -17 -17 -17 -23 0
-35 15 -26 31 10 15 39 6 43 -14z m2 -143 c0 -20 -30 -30 -40 -13 -11 17 7 40
26 32 8 -3 14 -12 14 -19z m-2 -141 c5 -17 -26 -29 -40 -15 -6 6 -7 15 -3 22
9 14 37 9 43 -7z"/>
<path d="M1496 1694 c-39 -39 0 -98 49 -76 32 15 41 49 19 73 -21 23 -47 24
-68 3z"/>
<path d="M900 1480 l0 -210 40 0 40 0 0 85 0 85 70 0 70 0 0 35 0 35 -70 0
-70 0 0 55 0 55 80 0 80 0 0 35 0 35 -120 0 -120 0 0 -210z m70 -5 c0 -7 -6
-18 -14 -24 -11 -9 -14 -7 -18 12 -7 35 1 50 18 36 8 -6 14 -17 14 -24z"/>
<path d="M1840 1480 l0 -210 100 0 c63 0 113 5 134 14 42 18 76 61 76 98 0 35
-24 83 -47 97 -17 9 -16 11 5 33 15 17 22 37 22 65 0 82 -56 113 -204 113
l-86 0 0 -210z m198 128 c7 -7 12 -24 12 -38 0 -38 -18 -50 -77 -50 l-53 0 0
50 0 50 53 0 c29 0 58 -5 65 -12z m-134 -106 c15 -18 15 -20 -4 -37 -20 -18
-20 -18 -20 18 0 43 1 43 24 19z m140 -65 c11 -8 19 -26 19 -42 0 -39 -27 -55
-90 -55 l-53 0 0 55 0 55 53 0 c29 0 61 -6 71 -13z"/>
<path d="M2502 1614 c3 -29 1 -38 -14 -42 -27 -7 -25 -62 2 -62 19 0 20 -7 20
-96 0 -52 5 -104 10 -114 13 -23 79 -43 115 -34 22 5 26 11 23 38 -3 26 -7 30
-26 28 -42 -6 -52 14 -52 99 l0 79 35 0 c33 0 35 2 35 34 0 34 -1 35 -35 29
l-35 -6 0 42 0 41 -41 0 -41 0 4 -36z m67 -63 c14 -24 -18 -58 -37 -39 -13 13
-16 41 -5 51 12 13 32 7 42 -12z"/>
<path d="M1218 1564 c-29 -15 -48 -42 -48 -68 0 -25 62 -21 78 4 24 38 102 19
102 -25 0 -23 -4 -25 -50 -25 -115 0 -167 -59 -125 -140 28 -54 114 -61 167
-13 17 15 18 15 18 -5 0 -19 6 -22 36 -22 l36 0 -4 118 c-4 127 -16 159 -64
180 -35 16 -113 14 -146 -4z m130 -181 c-2 -14 -15 -35 -30 -46 -23 -17 -31
-19 -53 -9 -44 20 -29 65 25 75 56 10 61 8 58 -20z"/>
<path d="M1630 1423 l0 -153 35 0 35 0 0 91 c0 120 15 149 78 149 30 0 32 2
32 35 0 32 -2 35 -29 35 -18 0 -43 -11 -62 -27 -30 -26 -32 -26 -27 -6 5 18 1
22 -28 25 l-34 4 0 -153z"/>
<path d="M2165 1570 c-2 -3 21 -73 51 -155 30 -82 51 -158 48 -167 -7 -22 -38
-40 -62 -36 -13 2 -18 -5 -20 -29 -3 -33 -3 -33 43 -33 73 0 91 25 163 233 34
98 62 182 62 186 0 3 -17 5 -38 3 l-37 -4 -30 -98 c-17 -55 -33 -96 -36 -92
-3 4 -18 48 -34 99 l-28 91 -39 4 c-22 2 -41 1 -43 -2z m173 -215 c4 -4 -26
-75 -32 -75 -2 0 -11 20 -19 45 l-16 44 32 -6 c18 -3 33 -7 35 -8z"/>
<path d="M2754 1570 c-32 -13 -72 -67 -80 -105 -24 -128 66 -229 175 -196 36
10 91 60 91 82 0 5 -18 9 -40 9 -22 0 -40 -5 -40 -10 0 -6 -12 -15 -26 -21
-32 -11 -70 9 -83 44 -8 22 -6 22 93 27 l101 5 -2 38 c-3 52 -28 100 -62 120
-31 18 -92 21 -127 7z m98 -67 c10 -9 18 -24 18 -35 0 -15 -8 -18 -60 -18 -53
0 -60 2 -60 19 0 46 65 68 102 34z"/>
<path d="M1490 1420 l0 -150 38 0 37 0 0 150 0 150 -37 0 -38 0 0 -150z"/>
</g>
</svg>
